<svg width="21" height="21" viewBox="0 0 21 21" fill="none" xmlns="http://www.w3.org/2000/svg">
<path d="M7.31063 2.54834H14.3106C16.9773 2.54834 19.144 4.71501 19.144 7.38167V14.3817C19.144 15.6636 18.6347 16.8929 17.7283 17.7994C16.8219 18.7058 15.5925 19.215 14.3106 19.215H7.31063C4.64396 19.215 2.47729 17.0483 2.47729 14.3817V7.38167C2.47729 6.09979 2.98652 4.87042 3.89295 3.96399C4.79937 3.05756 6.02875 2.54834 7.31063 2.54834ZM7.14396 4.21501C6.34831 4.21501 5.58525 4.53108 5.02264 5.09369C4.46003 5.6563 4.14396 6.41936 4.14396 7.21501V14.5483C4.14396 16.2067 5.48563 17.5483 7.14396 17.5483H14.4773C15.2729 17.5483 16.036 17.2323 16.5986 16.6697C17.1612 16.1071 17.4773 15.344 17.4773 14.5483V7.21501C17.4773 5.55667 16.1356 4.21501 14.4773 4.21501H7.14396ZM15.1856 5.46501C15.4619 5.46501 15.7268 5.57475 15.9222 5.7701C16.1175 5.96545 16.2273 6.23041 16.2273 6.50667C16.2273 6.78294 16.1175 7.04789 15.9222 7.24324C15.7268 7.43859 15.4619 7.54834 15.1856 7.54834C14.9094 7.54834 14.6444 7.43859 14.4491 7.24324C14.2537 7.04789 14.144 6.78294 14.144 6.50667C14.144 6.23041 14.2537 5.96545 14.4491 5.7701C14.6444 5.57475 14.9094 5.46501 15.1856 5.46501ZM10.8106 6.71501C11.9157 6.71501 12.9755 7.15399 13.7569 7.93539C14.5383 8.7168 14.9773 9.7766 14.9773 10.8817C14.9773 11.9867 14.5383 13.0465 13.7569 13.828C12.9755 14.6094 11.9157 15.0483 10.8106 15.0483C9.70556 15.0483 8.64575 14.6094 7.86435 13.828C7.08295 13.0465 6.64396 11.9867 6.64396 10.8817C6.64396 9.7766 7.08295 8.7168 7.86435 7.93539C8.64575 7.15399 9.70556 6.71501 10.8106 6.71501ZM10.8106 8.38167C10.1476 8.38167 9.5117 8.64506 9.04286 9.11391C8.57402 9.58275 8.31063 10.2186 8.31063 10.8817C8.31063 11.5447 8.57402 12.1806 9.04286 12.6494C9.5117 13.1183 10.1476 13.3817 10.8106 13.3817C11.4737 13.3817 12.1096 13.1183 12.5784 12.6494C13.0472 12.1806 13.3106 11.5447 13.3106 10.8817C13.3106 10.2186 13.0472 9.58275 12.5784 9.11391C12.1096 8.64506 11.4737 8.38167 10.8106 8.38167Z" fill="#1A1A1A"/>
</svg>
