<svg width="16" height="16" viewBox="0 0 16 16" fill="none" xmlns="http://www.w3.org/2000/svg">
<path d="M1.68555 15.8817C1.54666 15.8817 1.40082 15.8781 1.24805 15.8709C1.09527 15.8637 0.949436 15.8534 0.810547 15.84V10.965L4.97721 10.1317L7.39388 12.5484C8.44944 11.9095 9.41832 11.1525 10.3005 10.2775C11.1828 9.40255 11.9153 8.46505 12.498 7.46505L10.123 5.06921L10.8939 0.881714H15.7689C15.7967 1.0206 15.8105 1.16644 15.8105 1.31921V1.75671C15.8105 3.54838 15.4114 5.29505 14.613 6.99671C13.8147 8.69838 12.7592 10.2087 11.4464 11.5275C10.1336 12.847 8.62666 13.9025 6.92555 14.6942C5.22444 15.4859 3.47777 15.8817 1.68555 15.8817ZM13.2897 5.88171C13.5258 5.34005 13.7064 4.79144 13.8314 4.23588C13.9564 3.68032 14.0536 3.11782 14.123 2.54838H12.2689L11.9147 4.50671L13.2897 5.88171ZM5.83138 13.34L4.43555 11.9442L2.47721 12.34V14.1734C3.04666 14.1317 3.61277 14.0414 4.17555 13.9025C4.73832 13.7637 5.29027 13.5762 5.83138 13.34Z" fill="#1A1A1A"/>
</svg>
